<svg xmlns="http://www.w3.org/2000/svg" viewBox="0 0 920 520" font-family="Segoe UI, Arial, sans-serif">
  <defs><style>.t{font:700 18px sans-serif;fill:#0f172a}.b{fill:#eff6ff;stroke:#2563eb;rx:8}.s{fill:#f0fdf4;stroke:#16a34a;rx:8}.o{fill:#fff7ed;stroke:#ea580c;rx:8}.e{fill:#fef2f2;stroke:#dc2626;rx:8}.l{font:600 13px sans-serif;fill:#0f172a}.m{font:11px sans-serif;fill:#475569}</style></defs>
  <text x="460" y="28" text-anchor="middle" class="t">Unified Document Engine  Context (OP-RES-006)</text>
  <rect x="280" y="50" width="360" height="120" class="b"/>
  <text x="460" y="78" text-anchor="middle" class="l">Unified Document Engine</text>
  <text x="300" y="100" class="m">Document Core Ě Editorial Ě Localization Ě Generation</text>
  <text x="300" y="118" class="m">Lifecycle Ě Rendering Ě Specializations</text>
  <text x="300" y="136" class="m">Execution Projection boundary (handoff only)</text>
  <rect x="40" y="200" width="200" height="90" class="s"/>
  <text x="140" y="230" text-anchor="middle" class="l">Personnel Orders</text>
  <text x="50" y="252" class="m">Employee Events</text>
  <text x="50" y="268" class="m">HIRE TRANSFER TERMINATION</text>
  <rect x="360" y="200" width="200" height="90" class="o"/>
  <text x="460" y="230" text-anchor="middle" class="l">Operational Orders</text>
  <text x="370" y="252" class="m">Execution Obligations</text>
  <text x="370" y="268" class="m">Control Ě Commissions Ě Deadlines</text>
  <rect x="680" y="200" width="200" height="90" class="b"/>
  <text x="780" y="230" text-anchor="middle" class="l">Future Families</text>
  <text x="690" y="252" class="m">Same shell + registries</text>
  <line x1="240" y1="200" x2="340" y2="170" stroke="#334155" stroke-width="2"/>
  <line x1="460" y1="170" x2="460" y2="200" stroke="#334155" stroke-width="2"/>
  <line x1="680" y1="200" x2="580" y2="170" stroke="#334155" stroke-width="2"/>
  <rect x="120" y="340" width="680" height="70" class="b"/>
  <text x="460" y="368" text-anchor="middle" class="l">Shared Document Shell</text>
  <text x="140" y="390" class="m">Header ĺ Preamble ĺ Operative Formula ĺ Items ĺ Attachments ĺ Signature ĺ Agreement ĺ Acknowledgement</text>
  <rect x="120" y="430" width="300" height="70" class="e"/>
  <text x="270" y="458" text-anchor="middle" class="l">Execution / Task Contour</text>
  <text x="130" y="480" class="m">Downstream Ě not part of Document Engine</text>
  <line x1="460" y1="410" x2="270" y2="430" stroke="#dc2626" stroke-width="2" stroke-dasharray="6,4"/>
  <text x="360" y="425" class="m">Execution Projection</text>
  <text x="460" y="510" text-anchor="middle" class="m">Evidence: OP-RES-001005A Ě Personnel Orders MVP (read-only)</text>
</svg>
