<svg xmlns="http://www.w3.org/2000/svg" viewBox="0 0 750 420" font-family="Segoe UI, Arial, sans-serif">
  <defs><style>.t{font:700 17px sans-serif;fill:#0f172a}.b{fill:#ecfdf5;stroke:#059669;rx:20}.s{fill:#e0e7ff;stroke:#4f46e5;rx:6}.m{font:9px sans-serif;fill:#475569}.l{font:600 11px sans-serif;fill:#0f172a}</style></defs>
  <text x="375" y="22" text-anchor="middle" class="t">Document Birth (UDE-004)</text>
  <rect x="280" y="45" width="190" height="36" class="s"/><text x="375" y="68" text-anchor="middle" class="l">Official Draft Package</text>
  <rect x="300" y="100" width="150" height="32" class="b"/><text x="375" y="120" text-anchor="middle" class="m">PROMOTION_STARTED</text>
  <rect x="300" y="145" width="150" height="32" class="b"/><text x="375" y="165" text-anchor="middle" class="m">Promotion Materialize</text>
  <rect x="280" y="190" width="190" height="50" class="s"/><text x="375" y="212" text-anchor="middle" class="l"> DOCUMENT_ACTIVATED </text><text x="290" y="230" class="m">birth moment  atomic commit</text>
  <rect x="300" y="255" width="150" height="28" class="b"/><text x="375" y="273" text-anchor="middle" class="m">DocumentId assigned</text>
  <rect x="300" y="290" width="150" height="28" class="b"/><text x="375" y="308" text-anchor="middle" class="m">Lifecycle DRAFT</text>
  <rect x="300" y="325" width="150" height="28" class="b"/><text x="375" y="343" text-anchor="middle" class="m">Version 1 + Publication</text>
  <line x1="375" y1="81" x2="375" y2="100" stroke="#334155"/><line x1="375" y1="132" x2="375" y2="145" stroke="#334155"/><line x1="375" y1="177" x2="375" y2="190" stroke="#059669" stroke-width="2"/><line x1="375" y1="240" x2="375" y2="255" stroke="#334155"/>
  <text x="120" y="212" class="m">Creates:</text><text x="120" y="228" class="m">Document Aggregate</text><text x="120" y="244" class="m">Lifecycle Audit</text><text x="120" y="260" class="m">Registry entry</text>
  <text x="530" y="212" class="m">NOT creates:</text><text x="530" y="228" class="m">Signed snapshot</text><text x="530" y="244" class="m">Projection</text><text x="530" y="260" class="m">Reg number (default)</text>
  <text x="375" y="395" text-anchor="middle" class="m">Workspace frozen DOCUMENT_PROMOTED after successful birth</text>
</svg>
