<svg xmlns="http://www.w3.org/2000/svg" viewBox="0 0 820 450" font-family="Segoe UI, Arial, sans-serif">
  <defs><style>.t{font:700 17px sans-serif;fill:#0f172a}.ed{fill:#eff6ff;stroke:#2563eb;rx:6}.loc{fill:#ecfdf5;stroke:#059669;rx:6}.e{fill:#fef2f2;stroke:#dc2626;rx:4}.w{fill:#fef3c7;stroke:#d97706;rx:4}.ok{fill:#d1fae5;stroke:#059669;rx:4}.l{font:600 10px sans-serif;fill:#0f172a}.m{font:9px sans-serif;fill:#475569}</style></defs>
  <text x="410" y="22" text-anchor="middle" class="t">Editorial Validation Flow (UDE-003)</text>
  <rect x="300" y="40" width="220" height="36" class="ed"/><text x="410" y="62" text-anchor="middle" class="l">Editorial + Locale Blocks</text>
  <rect x="60" y="100" width="120" height="40" class="ed"/><text x="120" y="122" text-anchor="middle" class="l">Structure E101</text>
  <rect x="200" y="100" width="120" height="40" class="ed"/><text x="260" y="122" text-anchor="middle" class="l">Editorial E102</text>
  <rect x="340" y="100" width="120" height="40" class="loc"/><text x="400" y="122" text-anchor="middle" class="l">Locale E103</text>
  <rect x="480" y="100" width="120" height="40" class="ed"/><text x="540" y="122" text-anchor="middle" class="l">Ordering E106</text>
  <rect x="620" y="100" width="140" height="40" class="loc"/><text x="690" y="122" text-anchor="middle" class="l">BC001-BC023</text>
  <line x1="410" y1="76" x2="120" y2="100" stroke="#334155"/><line x1="410" y1="76" x2="260" y2="100" stroke="#334155"/><line x1="410" y1="76" x2="400" y2="100" stroke="#334155"/><line x1="410" y1="76" x2="540" y2="100" stroke="#334155"/><line x1="410" y1="76" x2="690" y2="100" stroke="#334155"/>
  <rect x="200" y="170" width="420" height="40" rx="6" fill="#f8fafc" stroke="#94a3b8"/><text x="410" y="192" text-anchor="middle" class="l">Severity: error blocks | warning logged | clarification pauses</text>
  <rect x="280" y="230" width="260" height="50" class="ok"/><text x="410" y="252" text-anchor="middle" class="l">OfficialDraftPackage Assembled</text><text x="290" y="268" class="m">promotion_readiness = true</text>
  <rect x="80" y="310" width="150" height="30" class="e"/><text x="155" y="330" text-anchor="middle" class="m">E103 STALE locale</text>
  <rect x="250" y="310" width="150" height="30" class="e"/><text x="325" y="330" text-anchor="middle" class="m">E113 confirmation</text>
  <rect x="420" y="310" width="150" height="30" class="e"/><text x="495" y="330" text-anchor="middle" class="m">BC020 placeholders</text>
  <rect x="590" y="310" width="150" height="30" class="e"/><text x="665" y="330" text-anchor="middle" class="m">E112 semantic</text>
  <text x="410" y="370" text-anchor="middle" class="m">Distinct from intake I* and lifecycle READY  gates package assembly only</text>
  <text x="410" y="430" text-anchor="middle" class="m">UDE-004 reuses BC + editorial for READY_FOR_SIGNATURE after promotion</text>
</svg>
