<svg xmlns="http://www.w3.org/2000/svg" viewBox="0 0 920 560" font-family="Segoe UI, Arial, sans-serif">
  <defs><marker id="a" markerWidth="8" markerHeight="8" refX="6" refY="3" orient="auto"><path d="M0,0 L6,3 L0,6 Z" fill="#475569"/></marker>
  <style>.t{font:700 18px sans-serif;fill:#0f172a}.s{font:12px sans-serif;fill:#64748b}.b{fill:#f8fafc;stroke:#334155;rx:6}.l{font:600 11px sans-serif;fill:#0f172a}.c{fill:#eff6ff;stroke:#2563eb}.o{fill:#fff7ed;stroke:#ea580c}.g{fill:#ecfdf5;stroke:#059669}</style></defs>
  <text x="460" y="28" text-anchor="middle" class="t">Bilingual Drafting Workflow (Research Model)</text>
  <text x="460" y="48" text-anchor="middle" class="s">OP-RES-005A  inferred + corpus-supported stages</text>
  <rect x="40" y="70" width="130" height="40" class="b g"/><text x="105" y="95" text-anchor="middle" class="l">Semantic draft</text>
  <rect x="190" y="70" width="130" height="40" class="b c"/><text x="255" y="95" text-anchor="middle" class="l">RU draft</text>
  <rect x="340" y="70" width="130" height="40" class="b o"/><text x="405" y="95" text-anchor="middle" class="l">RU review</text>
  <rect x="490" y="70" width="130" height="40" class="b c"/><text x="555" y="95" text-anchor="middle" class="l">KK draft</text>
  <rect x="640" y="70" width="130" height="40" class="b o"/><text x="705" y="95" text-anchor="middle" class="l">KK terminology</text>
  <rect x="340" y="140" width="200" height="40" class="b o"/><text x="440" y="165" text-anchor="middle" class="l">Bilingual reconciliation</text>
  <rect x="560" y="140" width="130" height="40" class="b g"/><text x="625" y="165" text-anchor="middle" class="l">Approval</text>
  <rect x="710" y="140" width="170" height="40" class="b g"/><text x="795" y="165" text-anchor="middle" class="l">Ready / Signed</text>
  <line x1="170" y1="90" x2="190" y2="90" stroke="#475569" marker-end="url(#a)"/>
  <line x1="320" y1="90" x2="340" y2="90" stroke="#475569" marker-end="url(#a)"/>
  <line x1="470" y1="90" x2="490" y2="90" stroke="#475569" marker-end="url(#a)"/>
  <line x1="620" y1="90" x2="640" y2="90" stroke="#475569" marker-end="url(#a)"/>
  <line x1="705" y1="110" x2="705" y2="130" stroke="#475569"/>
  <line x1="705" y1="130" x2="440" y2="130" stroke="#475569"/>
  <line x1="440" y1="130" x2="440" y2="140" stroke="#475569" marker-end="url(#a)"/>
  <line x1="540" y1="160" x2="560" y2="160" stroke="#475569" marker-end="url(#a)"/>
  <line x1="690" y1="160" x2="710" y2="160" stroke="#475569" marker-end="url(#a)"/>
  <rect x="40" y="220" width="840" height="300" class="b"/>
  <text x="60" y="248" class="l">Evidence level</text>
  <text x="60" y="272" class="s">confirmed: RU-dominant corpus; 135 intra-doc bilingual; 75 kk-after-ru layout</text>
  <text x="60" y="292" class="s">inferred: RU draft before KK translation (user hypothesis + layout, not org process proof)</text>
  <text x="60" y="312" class="s">requires interview: who translates, approval order, READY before KK complete</text>
  <text x="60" y="340" class="l">Corpus constraint</text>
  <text x="60" y="364" class="s">0 separate RU-file + KK-file translation pairs  workflow likely within single DOCX artifact</text>
  <text x="60" y="384" class="s">41 kk-only-content + 4 ru-only-content  incomplete bilingual coverage in archive</text>
  <text x="60" y="412" class="l">Legal vs editorial</text>
  <text x="60" y="436" class="s">Legal equivalence of signed RU+KK package  not researched here (no legal WP)</text>
  <text x="60" y="456" class="s">Editorial asymmetry (RU-first)  probable; symmetric independent drafting  not corpus-default</text>
  <text x="60" y="484" class="s">Dashed return path: RU edit after KK ’ KK staleness (conceptual, see staleness diagram)</text>
  <path d="M 255 110 Q 255 200 190 200 Q 120 200 120 110" fill="none" stroke="#ea580c" stroke-dasharray="4"/>
  <text x="130" y="195" class="s">RU late edit</text>
</svg>
