<svg xmlns="http://www.w3.org/2000/svg" viewBox="0 0 900 640" font-family="Segoe UI, Arial, sans-serif">
  <defs><style>.t{font:700 20px sans-serif;fill:#0f172a}.b{fill:#f8fafc;stroke:#334155;stroke-width:1.5;rx:6}.l{font:600 12px sans-serif;fill:#0f172a}.m{font:11px sans-serif;fill:#475569}.c{fill:#eff6ff;stroke:#2563eb}</style></defs>
  <text x="450" y="30" text-anchor="middle" class="t">Operational Order Definition (Generation Model)</text>
  <rect x="300" y="50" width="300" height="36" class="b c"/><text x="450" y="73" text-anchor="middle" class="l">OperationalOrderDefinition</text>
  <line x1="450" y1="86" x2="450" y2="110" stroke="#334155"/>
  <rect x="80" y="110" width="160" height="32" class="b"/><text x="160" y="130" text-anchor="middle" class="l">Scenario</text>
  <rect x="260" y="110" width="180" height="32" class="b"/><text x="350" y="130" text-anchor="middle" class="l">DocumentMetadata</text>
  <rect x="460" y="110" width="180" height="32" class="b"/><text x="550" y="130" text-anchor="middle" class="l">PreambleDefinition</text>
  <rect x="660" y="110" width="160" height="32" class="b"/><text x="740" y="130" text-anchor="middle" class="l">SignatureDefinition</text>
  <rect x="200" y="170" width="500" height="120" class="b c"/>
  <text x="450" y="195" text-anchor="middle" class="l">OrderItemDefinitions[]</text>
  <rect x="220" y="210" width="460" height="60" class="b"/>
  <text x="450" y="232" text-anchor="middle" class="l">ExecutionObligationDefinitions[]</text>
  <text x="450" y="252" text-anchor="middle" class="m">Intent Ę Object Ę Party Ę Deadline Ę Result Ę Evidence</text>
  <rect x="200" y="310" width="240" height="32" class="b"/><text x="320" y="330" text-anchor="middle" class="l">ControlObligationDefinition</text>
  <rect x="460" y="310" width="240" height="32" class="b"/><text x="580" y="330" text-anchor="middle" class="l">AttachmentDefinitions[]</text>
  <rect x="200" y="360" width="500" height="80" class="b c"/>
  <text x="450" y="385" text-anchor="middle" class="l">LanguageRenderings (kk / ru)</text>
  <text x="450" y="405" text-anchor="middle" class="m">generated_text Ę override_text Ę effective_text per block</text>
  <text x="450" y="425" text-anchor="middle" class="m">independent RU and KK from same semantic model</text>
  <rect x="200" y="460" width="240" height="32" class="b"/><text x="320" y="480" text-anchor="middle" class="l">ValidationResult</text>
  <rect x="460" y="460" width="240" height="32" class="b"/><text x="580" y="480" text-anchor="middle" class="l">ExecutionProjection</text>
  <text x="450" y="530" text-anchor="middle" class="m">Confirmed by corpus Ę ExecutionProjection is handoff only Ę not runtime</text>
  <text x="450" y="550" text-anchor="middle" class="m">Dashed future: AmendmentDefinition (sparse corpus evidence)</text>
</svg>
