<svg xmlns="http://www.w3.org/2000/svg" viewBox="0 0 920 500" font-family="Segoe UI, Arial, sans-serif">
  <defs>
    <style>
      .t { font: 700 18px sans-serif; fill: #0f172a; }
      .l { font: 12px sans-serif; fill: #334155; }
      .v { font: 11px sans-serif; fill: #64748b; }
    </style>
  </defs>
  <text x="460" y="28" text-anchor="middle" class="t">Business Intent Frequency (detected in 183 DOCX texts)</text>
  <text x="460" y="48" text-anchor="middle" class="v">Same intent may appear across multiple domains  shared engine verbs</text>

  <!-- bars: intent, count, max=165 -->
  <text x="220" y="78" class="l">:>=B@>;8@>20BL</text><rect x="220" y="84" width="528" height="18" fill="#059669" rx="3"/><text x="755" y="97" class="v">165</text>
  <text x="220" y="118" class="l">45;538@>20BL</text><rect x="220" y="124" width="259" height="18" fill="#2563eb" rx="3"/><text x="486" y="137" class="v">81</text>
  <text x="220" y="158" class="l">A>740BL</text><rect x="220" y="164" width="227" height="18" fill="#2563eb" rx="3"/><text x="454" y="177" class="v">71</text>
  <text x="220" y="198" class="l">=0?@028BL</text><rect x="220" y="204" width="192" height="18" fill="#7c3aed" rx="3"/><text x="419" y="217" class="v">60</text>
  <text x="220" y="238" class="l">CB25@48BL</text><rect x="220" y="244" width="164" height="18" fill="#7c3aed" rx="3"/><text x="391" y="257" class="v">51</text>
  <text x="220" y="278" class="l">>15A?5G8BL</text><rect x="220" y="284" width="151" height="18" fill="#0891b2" rx="3"/><text x="378" y="297" class="v">47</text>
  <text x="220" y="318" class="l">>@30=87>20BL</text><rect x="220" y="324" width="147" height="18" fill="#0891b2" rx="3"/><text x="374" y="337" class="v">46</text>
  <text x="220" y="358" class="l">=07=0G8BL</text><rect x="220" y="364" width="80" height="18" fill="#ea580c" rx="3"/><text x="307" y="377" class="v">25</text>
  <text x="220" y="398" class="l">?@>25AB8</text><rect x="220" y="404" width="70" height="18" fill="#ea580c" rx="3"/><text x="297" y="417" class="v">22</text>
  <text x="220" y="438" class="l">87<5=8BL · 225AB8 · CAB0=>28BL · @07@5H8BL · ?@87=0BL · 70?@5B8BL · >B<5=8BL</text>
  <text x="220" y="458" class="v">long tail: 20 + 16 + 9 + 4 + 3 + 2 + 1 docs respectively</text>

  <rect x="40" y="70" width="160" height="120" fill="#ecfdf5" stroke="#059669" rx="6"/>
  <text x="55" y="95" class="l">Cross-domain</text>
  <text x="55" y="115" class="v">:>=B@>;8@>20BL</text>
  <text x="55" y="133" class="v">45;538@>20BL</text>
  <text x="55" y="151" class="v">CB25@48BL</text>
  <text x="55" y="169" class="v">appear in FINANCE,</text>
  <text x="55" y="183" class="v">CLINICAL, SAFETY&</text>
</svg>
