<?xml version="1.0" encoding="UTF-8" standalone="no"?>
<!DOCTYPE svg PUBLIC "-//W3C//DTD SVG 1.1//EN"
 "http://www.w3.org/Graphics/SVG/1.1/DTD/svg11.dtd">
<!-- Generated by graphviz version 2.42.4 (0)
 -->
<!-- Title: G Pages: 1 -->
<svg width="430pt" height="702pt"
 viewBox="0.00 0.00 429.60 701.60" xmlns="http://www.w3.org/2000/svg" xmlns:xlink="http://www.w3.org/1999/xlink">
<g id="graph0" class="graph" transform="scale(1 1) rotate(0) translate(28.8 672.8)">
<title>G</title>
<polygon fill="white" stroke="transparent" points="-28.8,28.8 -28.8,-672.8 400.8,-672.8 400.8,28.8 -28.8,28.8"/>
<g id="clust1" class="cluster">
<title>cluster_event</title>
<polygon fill="white" stroke="#aaaaaa" points="8,-166 8,-636 183,-636 183,-166 8,-166"/>
<text text-anchor="middle" x="95.5" y="-620.8" font-family="Arial" font-size="14.00">Personnel Event Workflow</text>
</g>
<g id="clust2" class="cluster">
<title>cluster_order</title>
<polygon fill="white" stroke="#aaaaaa" points="191,-8 191,-636 364,-636 364,-8 191,-8"/>
<text text-anchor="middle" x="277.5" y="-620.8" font-family="Arial" font-size="14.00">Personnel Order Lifecycle</text>
</g>
<!-- E1 -->
<g id="node1" class="node">
<title>E1</title>
<path fill="#f7f7f7" stroke="#444444" d="M102,-605C102,-605 72,-605 72,-605 66,-605 60,-599 60,-593 60,-593 60,-581 60,-581 60,-575 66,-569 72,-569 72,-569 102,-569 102,-569 108,-569 114,-575 114,-581 114,-581 114,-593 114,-593 114,-599 108,-605 102,-605"/>
<text text-anchor="middle" x="87" y="-584.2" font-family="Arial" font-size="11.00">Draft</text>
</g>
<!-- E2 -->
<g id="node2" class="node">
<title>E2</title>
<path fill="#f7f7f7" stroke="#444444" d="M106,-526C106,-526 68,-526 68,-526 62,-526 56,-520 56,-514 56,-514 56,-502 56,-502 56,-496 62,-490 68,-490 68,-490 106,-490 106,-490 112,-490 118,-496 118,-502 118,-502 118,-514 118,-514 118,-520 112,-526 106,-526"/>
<text text-anchor="middle" x="87" y="-505.2" font-family="Arial" font-size="11.00">Prepared</text>
</g>
<!-- E1&#45;&gt;E2 -->
<g id="edge1" class="edge">
<title>E1&#45;&gt;E2</title>
<path fill="none" stroke="#555555" d="M87,-568.91C87,-559.34 87,-547.18 87,-536.32"/>
<polygon fill="#555555" stroke="#555555" points="90.5,-536.04 87,-526.04 83.5,-536.04 90.5,-536.04"/>
</g>
<!-- E3 -->
<g id="node3" class="node">
<title>E3</title>
<path fill="#f7f7f7" stroke="#444444" d="M106.5,-447C106.5,-447 67.5,-447 67.5,-447 61.5,-447 55.5,-441 55.5,-435 55.5,-435 55.5,-423 55.5,-423 55.5,-417 61.5,-411 67.5,-411 67.5,-411 106.5,-411 106.5,-411 112.5,-411 118.5,-417 118.5,-423 118.5,-423 118.5,-435 118.5,-435 118.5,-441 112.5,-447 106.5,-447"/>
<text text-anchor="middle" x="87" y="-426.2" font-family="Arial" font-size="11.00">Approved</text>
</g>
<!-- E2&#45;&gt;E3 -->
<g id="edge2" class="edge">
<title>E2&#45;&gt;E3</title>
<path fill="none" stroke="#555555" d="M87,-489.91C87,-480.34 87,-468.18 87,-457.32"/>
<polygon fill="#555555" stroke="#555555" points="90.5,-457.04 87,-447.04 83.5,-457.04 90.5,-457.04"/>
</g>
<!-- E4 -->
<g id="node4" class="node">
<title>E4</title>
<path fill="#f7f7f7" stroke="#444444" d="M102,-368C102,-368 72,-368 72,-368 66,-368 60,-362 60,-356 60,-356 60,-344 60,-344 60,-338 66,-332 72,-332 72,-332 102,-332 102,-332 108,-332 114,-338 114,-344 114,-344 114,-356 114,-356 114,-362 108,-368 102,-368"/>
<text text-anchor="middle" x="87" y="-347.2" font-family="Arial" font-size="11.00">Active</text>
</g>
<!-- E3&#45;&gt;E4 -->
<g id="edge3" class="edge">
<title>E3&#45;&gt;E4</title>
<path fill="none" stroke="#555555" d="M87,-410.91C87,-401.34 87,-389.18 87,-378.32"/>
<polygon fill="#555555" stroke="#555555" points="90.5,-378.04 87,-368.04 83.5,-378.04 90.5,-378.04"/>
</g>
<!-- E5 -->
<g id="node5" class="node">
<title>E5</title>
<path fill="#f7f7f7" stroke="#444444" d="M109.5,-289C109.5,-289 64.5,-289 64.5,-289 58.5,-289 52.5,-283 52.5,-277 52.5,-277 52.5,-265 52.5,-265 52.5,-259 58.5,-253 64.5,-253 64.5,-253 109.5,-253 109.5,-253 115.5,-253 121.5,-259 121.5,-265 121.5,-265 121.5,-277 121.5,-277 121.5,-283 115.5,-289 109.5,-289"/>
<text text-anchor="middle" x="87" y="-268.2" font-family="Arial" font-size="11.00">Completed</text>
</g>
<!-- E4&#45;&gt;E5 -->
<g id="edge4" class="edge">
<title>E4&#45;&gt;E5</title>
<path fill="none" stroke="#555555" d="M87,-331.91C87,-322.34 87,-310.18 87,-299.32"/>
<polygon fill="#555555" stroke="#555555" points="90.5,-299.04 87,-289.04 83.5,-299.04 90.5,-299.04"/>
</g>
<!-- E6 -->
<g id="node6" class="node">
<title>E6</title>
<path fill="#f7f7f7" stroke="#444444" d="M104.5,-210C104.5,-210 69.5,-210 69.5,-210 63.5,-210 57.5,-204 57.5,-198 57.5,-198 57.5,-186 57.5,-186 57.5,-180 63.5,-174 69.5,-174 69.5,-174 104.5,-174 104.5,-174 110.5,-174 116.5,-180 116.5,-186 116.5,-186 116.5,-198 116.5,-198 116.5,-204 110.5,-210 104.5,-210"/>
<text text-anchor="middle" x="87" y="-189.2" font-family="Arial" font-size="11.00">Archived</text>
</g>
<!-- E5&#45;&gt;E6 -->
<g id="edge5" class="edge">
<title>E5&#45;&gt;E6</title>
<path fill="none" stroke="#555555" d="M87,-252.91C87,-243.34 87,-231.18 87,-220.32"/>
<polygon fill="#555555" stroke="#555555" points="90.5,-220.04 87,-210.04 83.5,-220.04 90.5,-220.04"/>
</g>
<!-- O1 -->
<g id="node7" class="node">
<title>O1</title>
<path fill="#f7f7f7" stroke="#444444" d="M292,-605C292,-605 262,-605 262,-605 256,-605 250,-599 250,-593 250,-593 250,-581 250,-581 250,-575 256,-569 262,-569 262,-569 292,-569 292,-569 298,-569 304,-575 304,-581 304,-581 304,-593 304,-593 304,-599 298,-605 292,-605"/>
<text text-anchor="middle" x="277" y="-584.2" font-family="Arial" font-size="11.00">Draft</text>
</g>
<!-- O2 -->
<g id="node8" class="node">
<title>O2</title>
<path fill="#f7f7f7" stroke="#444444" d="M296,-526C296,-526 258,-526 258,-526 252,-526 246,-520 246,-514 246,-514 246,-502 246,-502 246,-496 252,-490 258,-490 258,-490 296,-490 296,-490 302,-490 308,-496 308,-502 308,-502 308,-514 308,-514 308,-520 302,-526 296,-526"/>
<text text-anchor="middle" x="277" y="-505.2" font-family="Arial" font-size="11.00">Prepared</text>
</g>
<!-- O1&#45;&gt;O2 -->
<g id="edge6" class="edge">
<title>O1&#45;&gt;O2</title>
<path fill="none" stroke="#555555" d="M277,-568.91C277,-559.34 277,-547.18 277,-536.32"/>
<polygon fill="#555555" stroke="#555555" points="280.5,-536.04 277,-526.04 273.5,-536.04 280.5,-536.04"/>
</g>
<!-- O3 -->
<g id="node9" class="node">
<title>O3</title>
<path fill="#f7f7f7" stroke="#444444" d="M301,-447C301,-447 253,-447 253,-447 247,-447 241,-441 241,-435 241,-435 241,-423 241,-423 241,-417 247,-411 253,-411 253,-411 301,-411 301,-411 307,-411 313,-417 313,-423 313,-423 313,-435 313,-435 313,-441 307,-447 301,-447"/>
<text text-anchor="middle" x="277" y="-432.2" font-family="Arial" font-size="11.00">Approval</text>
<text text-anchor="middle" x="277" y="-420.2" font-family="Arial" font-size="11.00">In Progress</text>
</g>
<!-- O2&#45;&gt;O3 -->
<g id="edge7" class="edge">
<title>O2&#45;&gt;O3</title>
<path fill="none" stroke="#555555" d="M277,-489.91C277,-480.34 277,-468.18 277,-457.32"/>
<polygon fill="#555555" stroke="#555555" points="280.5,-457.04 277,-447.04 273.5,-457.04 280.5,-457.04"/>
</g>
<!-- O4 -->
<g id="node10" class="node">
<title>O4</title>
<path fill="#f7f7f7" stroke="#444444" d="M296.5,-368C296.5,-368 257.5,-368 257.5,-368 251.5,-368 245.5,-362 245.5,-356 245.5,-356 245.5,-344 245.5,-344 245.5,-338 251.5,-332 257.5,-332 257.5,-332 296.5,-332 296.5,-332 302.5,-332 308.5,-338 308.5,-344 308.5,-344 308.5,-356 308.5,-356 308.5,-362 302.5,-368 296.5,-368"/>
<text text-anchor="middle" x="277" y="-347.2" font-family="Arial" font-size="11.00">Approved</text>
</g>
<!-- O3&#45;&gt;O4 -->
<g id="edge8" class="edge">
<title>O3&#45;&gt;O4</title>
<path fill="none" stroke="#555555" d="M277,-410.91C277,-401.34 277,-389.18 277,-378.32"/>
<polygon fill="#555555" stroke="#555555" points="280.5,-378.04 277,-368.04 273.5,-378.04 280.5,-378.04"/>
</g>
<!-- O5 -->
<g id="node11" class="node">
<title>O5</title>
<path fill="#f7f7f7" stroke="#444444" d="M292,-289C292,-289 262,-289 262,-289 256,-289 250,-283 250,-277 250,-277 250,-265 250,-265 250,-259 256,-253 262,-253 262,-253 292,-253 292,-253 298,-253 304,-259 304,-265 304,-265 304,-277 304,-277 304,-283 298,-289 292,-289"/>
<text text-anchor="middle" x="277" y="-268.2" font-family="Arial" font-size="11.00">Signed</text>
</g>
<!-- O4&#45;&gt;O5 -->
<g id="edge9" class="edge">
<title>O4&#45;&gt;O5</title>
<path fill="none" stroke="#555555" d="M277,-331.91C277,-322.34 277,-310.18 277,-299.32"/>
<polygon fill="#555555" stroke="#555555" points="280.5,-299.04 277,-289.04 273.5,-299.04 280.5,-299.04"/>
</g>
<!-- O6 -->
<g id="node12" class="node">
<title>O6</title>
<path fill="#f7f7f7" stroke="#444444" d="M299.5,-210C299.5,-210 254.5,-210 254.5,-210 248.5,-210 242.5,-204 242.5,-198 242.5,-198 242.5,-186 242.5,-186 242.5,-180 248.5,-174 254.5,-174 254.5,-174 299.5,-174 299.5,-174 305.5,-174 311.5,-180 311.5,-186 311.5,-186 311.5,-198 311.5,-198 311.5,-204 305.5,-210 299.5,-210"/>
<text text-anchor="middle" x="277" y="-189.2" font-family="Arial" font-size="11.00">Registered</text>
</g>
<!-- O5&#45;&gt;O6 -->
<g id="edge10" class="edge">
<title>O5&#45;&gt;O6</title>
<path fill="none" stroke="#555555" d="M277,-252.91C277,-243.34 277,-231.18 277,-220.32"/>
<polygon fill="#555555" stroke="#555555" points="280.5,-220.04 277,-210.04 273.5,-220.04 280.5,-220.04"/>
</g>
<!-- O7 -->
<g id="node13" class="node">
<title>O7</title>
<path fill="#f7f7f7" stroke="#444444" d="M296,-131C296,-131 258,-131 258,-131 252,-131 246,-125 246,-119 246,-119 246,-107 246,-107 246,-101 252,-95 258,-95 258,-95 296,-95 296,-95 302,-95 308,-101 308,-107 308,-107 308,-119 308,-119 308,-125 302,-131 296,-131"/>
<text text-anchor="middle" x="277" y="-110.2" font-family="Arial" font-size="11.00">Executed</text>
</g>
<!-- O6&#45;&gt;O7 -->
<g id="edge11" class="edge">
<title>O6&#45;&gt;O7</title>
<path fill="none" stroke="#555555" d="M277,-173.91C277,-164.34 277,-152.18 277,-141.32"/>
<polygon fill="#555555" stroke="#555555" points="280.5,-141.04 277,-131.04 273.5,-141.04 280.5,-141.04"/>
</g>
<!-- O8 -->
<g id="node14" class="node">
<title>O8</title>
<path fill="#f7f7f7" stroke="#444444" d="M294.5,-52C294.5,-52 259.5,-52 259.5,-52 253.5,-52 247.5,-46 247.5,-40 247.5,-40 247.5,-28 247.5,-28 247.5,-22 253.5,-16 259.5,-16 259.5,-16 294.5,-16 294.5,-16 300.5,-16 306.5,-22 306.5,-28 306.5,-28 306.5,-40 306.5,-40 306.5,-46 300.5,-52 294.5,-52"/>
<text text-anchor="middle" x="277" y="-31.2" font-family="Arial" font-size="11.00">Archived</text>
</g>
<!-- O7&#45;&gt;O8 -->
<g id="edge12" class="edge">
<title>O7&#45;&gt;O8</title>
<path fill="none" stroke="#555555" d="M277,-94.91C277,-85.34 277,-73.18 277,-62.32"/>
<polygon fill="#555555" stroke="#555555" points="280.5,-62.04 277,-52.04 273.5,-62.04 280.5,-62.04"/>
</g>
</g>
</svg>
