<?xml version="1.0" encoding="UTF-8" standalone="no"?>
<!DOCTYPE svg PUBLIC "-//W3C//DTD SVG 1.1//EN"
 "http://www.w3.org/Graphics/SVG/1.1/DTD/svg11.dtd">
<!-- Generated by graphviz version 2.42.4 (0)
 -->
<!-- Title: G Pages: 1 -->
<svg width="779pt" height="376pt"
 viewBox="0.00 0.00 778.60 375.60" xmlns="http://www.w3.org/2000/svg" xmlns:xlink="http://www.w3.org/1999/xlink">
<g id="graph0" class="graph" transform="scale(1 1) rotate(0) translate(28.8 346.8)">
<title>G</title>
<polygon fill="white" stroke="transparent" points="-28.8,28.8 -28.8,-346.8 749.8,-346.8 749.8,28.8 -28.8,28.8"/>
<!-- Event -->
<g id="node1" class="node">
<title>Event</title>
<path fill="#f7f7f7" stroke="#444444" d="M108,-177C108,-177 12,-177 12,-177 6,-177 0,-171 0,-165 0,-165 0,-153 0,-153 0,-147 6,-141 12,-141 12,-141 108,-141 108,-141 114,-141 120,-147 120,-153 120,-153 120,-165 120,-165 120,-171 114,-177 108,-177"/>
<text text-anchor="middle" x="60" y="-162.4" font-family="Arial" font-size="12.00">Personnel Event</text>
<text text-anchor="middle" x="60" y="-149.4" font-family="Arial" font-size="12.00">Кадровое событие</text>
</g>
<!-- Item -->
<g id="node2" class="node">
<title>Item</title>
<path fill="#f7f7f7" stroke="#444444" d="M343,-177C343,-177 271,-177 271,-177 265,-177 259,-171 259,-165 259,-165 259,-153 259,-153 259,-147 265,-141 271,-141 271,-141 343,-141 343,-141 349,-141 355,-147 355,-153 355,-153 355,-165 355,-165 355,-171 349,-177 343,-177"/>
<text text-anchor="middle" x="307" y="-162.4" font-family="Arial" font-size="12.00">Order Item</text>
<text text-anchor="middle" x="307" y="-149.4" font-family="Arial" font-size="12.00">Пункт приказа</text>
</g>
<!-- Event&#45;&gt;Item -->
<g id="edge1" class="edge">
<title>Event&#45;&gt;Item</title>
<path fill="none" stroke="#555555" d="M120.31,-159C159.31,-159 210.08,-159 248.67,-159"/>
<polygon fill="#555555" stroke="#555555" points="248.71,-162.5 258.71,-159 248.71,-155.5 248.71,-162.5"/>
<text text-anchor="middle" x="189.5" y="-162" font-family="Arial" font-size="10.00">оформляется пунктом</text>
</g>
<!-- Order -->
<g id="node3" class="node">
<title>Order</title>
<path fill="#f7f7f7" stroke="#444444" d="M523,-177C523,-177 443,-177 443,-177 437,-177 431,-171 431,-165 431,-165 431,-153 431,-153 431,-147 437,-141 443,-141 443,-141 523,-141 523,-141 529,-141 535,-147 535,-153 535,-153 535,-165 535,-165 535,-171 529,-177 523,-177"/>
<text text-anchor="middle" x="483" y="-162.4" font-family="Arial" font-size="12.00">Personnel Order</text>
<text text-anchor="middle" x="483" y="-149.4" font-family="Arial" font-size="12.00">Приказ ЛС</text>
</g>
<!-- Item&#45;&gt;Order -->
<g id="edge2" class="edge">
<title>Item&#45;&gt;Order</title>
<path fill="none" stroke="#555555" d="M355.09,-159C375.33,-159 399.26,-159 420.85,-159"/>
<polygon fill="#555555" stroke="#555555" points="420.9,-162.5 430.9,-159 420.9,-155.5 420.9,-162.5"/>
<text text-anchor="middle" x="393" y="-162" font-family="Arial" font-size="10.00">входит в</text>
</g>
<!-- DocxKz -->
<g id="node4" class="node">
<title>DocxKz</title>
<path fill="#f7f7f7" stroke="#444444" d="M670,-318C670,-318 623,-318 623,-318 617,-318 611,-312 611,-306 611,-306 611,-294 611,-294 611,-288 617,-282 623,-282 623,-282 670,-282 670,-282 676,-282 682,-288 682,-294 682,-294 682,-306 682,-306 682,-312 676,-318 670,-318"/>
<text text-anchor="middle" x="646.5" y="-303.4" font-family="Arial" font-size="12.00">DOCX KZ</text>
<text text-anchor="middle" x="646.5" y="-290.4" font-family="Arial" font-size="12.00">Проект</text>
</g>
<!-- Order&#45;&gt;DocxKz -->
<g id="edge3" class="edge">
<title>Order&#45;&gt;DocxKz</title>
<path fill="none" stroke="#555555" d="M498.7,-177.25C515.28,-197.18 543.64,-229.42 572,-253 582.11,-261.41 593.81,-269.51 604.87,-276.56"/>
<polygon fill="#555555" stroke="#555555" points="603.21,-279.65 613.55,-281.97 606.91,-273.71 603.21,-279.65"/>
</g>
<!-- PdfKz -->
<g id="node5" class="node">
<title>PdfKz</title>
<path fill="#f7f7f7" stroke="#444444" d="M709,-224C709,-224 584,-224 584,-224 578,-224 572,-218 572,-212 572,-212 572,-200 572,-200 572,-194 578,-188 584,-188 584,-188 709,-188 709,-188 715,-188 721,-194 721,-200 721,-200 721,-212 721,-212 721,-218 715,-224 709,-224"/>
<text text-anchor="middle" x="646.5" y="-209.4" font-family="Arial" font-size="12.00">PDF KZ</text>
<text text-anchor="middle" x="646.5" y="-196.4" font-family="Arial" font-size="12.00">Подписанный оригинал</text>
</g>
<!-- Order&#45;&gt;PdfKz -->
<g id="edge4" class="edge">
<title>Order&#45;&gt;PdfKz</title>
<path fill="none" stroke="#555555" d="M535.1,-173.87C547.32,-177.43 560.6,-181.29 573.57,-185.07"/>
<polygon fill="#555555" stroke="#555555" points="572.83,-188.5 583.41,-187.93 574.78,-181.77 572.83,-188.5"/>
</g>
<!-- DocxRu -->
<g id="node6" class="node">
<title>DocxRu</title>
<path fill="#f7f7f7" stroke="#444444" d="M671,-130C671,-130 622,-130 622,-130 616,-130 610,-124 610,-118 610,-118 610,-106 610,-106 610,-100 616,-94 622,-94 622,-94 671,-94 671,-94 677,-94 683,-100 683,-106 683,-106 683,-118 683,-118 683,-124 677,-130 671,-130"/>
<text text-anchor="middle" x="646.5" y="-115.4" font-family="Arial" font-size="12.00">DOCX RU</text>
<text text-anchor="middle" x="646.5" y="-102.4" font-family="Arial" font-size="12.00">Перевод</text>
</g>
<!-- Order&#45;&gt;DocxRu -->
<g id="edge5" class="edge">
<title>Order&#45;&gt;DocxRu</title>
<path fill="none" stroke="#555555" d="M535.1,-144.13C555.99,-138.05 579.95,-131.08 600.2,-125.18"/>
<polygon fill="#555555" stroke="#555555" points="601.18,-128.54 609.81,-122.39 599.23,-121.82 601.18,-128.54"/>
</g>
<!-- PdfRu -->
<g id="node7" class="node">
<title>PdfRu</title>
<path fill="#f7f7f7" stroke="#444444" d="M667,-36C667,-36 626,-36 626,-36 620,-36 614,-30 614,-24 614,-24 614,-12 614,-12 614,-6 620,0 626,0 626,0 667,0 667,0 673,0 679,-6 679,-12 679,-12 679,-24 679,-24 679,-30 673,-36 667,-36"/>
<text text-anchor="middle" x="646.5" y="-21.4" font-family="Arial" font-size="12.00">PDF RU</text>
<text text-anchor="middle" x="646.5" y="-8.4" font-family="Arial" font-size="12.00">Перевод</text>
</g>
<!-- Order&#45;&gt;PdfRu -->
<g id="edge6" class="edge">
<title>Order&#45;&gt;PdfRu</title>
<path fill="none" stroke="#555555" d="M498.7,-140.75C515.28,-120.82 543.64,-88.58 572,-65 582.2,-56.52 594.02,-48.34 605.17,-41.25"/>
<polygon fill="#555555" stroke="#555555" points="607.27,-44.06 613.91,-35.81 603.57,-38.12 607.27,-44.06"/>
</g>
</g>
</svg>
