<?xml version="1.0" encoding="UTF-8" standalone="no"?>
<!DOCTYPE svg PUBLIC "-//W3C//DTD SVG 1.1//EN"
 "http://www.w3.org/Graphics/SVG/1.1/DTD/svg11.dtd">
<!-- Generated by graphviz version 2.42.4 (0)
 -->
<!-- Title: G Pages: 1 -->
<svg width="439pt" height="396pt"
 viewBox="0.00 0.00 439.10 395.60" xmlns="http://www.w3.org/2000/svg" xmlns:xlink="http://www.w3.org/1999/xlink">
<g id="graph0" class="graph" transform="scale(1 1) rotate(0) translate(28.8 366.8)">
<title>G</title>
<polygon fill="white" stroke="transparent" points="-28.8,28.8 -28.8,-366.8 410.3,-366.8 410.3,28.8 -28.8,28.8"/>
<!-- Leave -->
<g id="node1" class="node">
<title>Leave</title>
<path fill="#f7f7f7" stroke="#444444" d="M346,-338C346,-338 227,-338 227,-338 221,-338 215,-332 215,-326 215,-326 215,-314 215,-314 215,-308 221,-302 227,-302 227,-302 346,-302 346,-302 352,-302 358,-308 358,-314 358,-314 358,-326 358,-326 358,-332 352,-338 346,-338"/>
<text text-anchor="middle" x="286.5" y="-323.4" font-family="Arial" font-size="12.00">Leave Event</text>
<text text-anchor="middle" x="286.5" y="-310.4" font-family="Arial" font-size="12.00">Отпуск / командировка</text>
</g>
<!-- Temp -->
<g id="node2" class="node">
<title>Temp</title>
<path fill="#f7f7f7" stroke="#444444" d="M274,-241C274,-241 125,-241 125,-241 119,-241 113,-235 113,-229 113,-229 113,-217 113,-217 113,-211 119,-205 125,-205 125,-205 274,-205 274,-205 280,-205 286,-211 286,-217 286,-217 286,-229 286,-229 286,-235 280,-241 274,-241"/>
<text text-anchor="middle" x="199.5" y="-226.4" font-family="Arial" font-size="12.00">Temporary Assignment Event</text>
<text text-anchor="middle" x="199.5" y="-213.4" font-family="Arial" font-size="12.00">Замещение / ИО</text>
</g>
<!-- Leave&#45;&gt;Temp -->
<g id="edge1" class="edge">
<title>Leave&#45;&gt;Temp</title>
<path fill="none" stroke="#555555" d="M270.54,-301.58C257.05,-286.84 237.56,-265.56 222.4,-249.01"/>
<polygon fill="#555555" stroke="#555555" points="224.69,-246.32 215.36,-241.31 219.53,-251.05 224.69,-246.32"/>
<text text-anchor="middle" x="282.5" y="-269" font-family="Arial" font-size="10.00">может породить</text>
</g>
<!-- Order -->
<g id="node4" class="node">
<title>Order</title>
<path fill="#f7f7f7" stroke="#444444" d="M293.5,-47C293.5,-47 153.5,-47 153.5,-47 147.5,-47 141.5,-41 141.5,-35 141.5,-35 141.5,-12 141.5,-12 141.5,-6 147.5,0 153.5,0 153.5,0 293.5,0 293.5,0 299.5,0 305.5,-6 305.5,-12 305.5,-12 305.5,-35 305.5,-35 305.5,-41 299.5,-47 293.5,-47"/>
<text text-anchor="middle" x="223.5" y="-33.4" font-family="Arial" font-size="12.00">Personnel Order</text>
<text text-anchor="middle" x="223.5" y="-20.4" font-family="Arial" font-size="12.00">Один комплексный приказ</text>
<text text-anchor="middle" x="223.5" y="-7.4" font-family="Arial" font-size="12.00">или отдельные приказы</text>
</g>
<!-- Leave&#45;&gt;Order -->
<g id="edge3" class="edge">
<title>Leave&#45;&gt;Order</title>
<path fill="none" stroke="#555555" d="M313.1,-301.94C321.21,-295.24 329.12,-286.79 333.5,-277 335.5,-272.54 334.16,-270.84 333.5,-266 323.63,-193.78 322.53,-172.98 289.5,-108 279.82,-88.96 265.43,-70.09 252.55,-55.12"/>
<polygon fill="#555555" stroke="#555555" points="254.83,-52.41 245.59,-47.22 249.58,-57.04 254.83,-52.41"/>
<text text-anchor="middle" x="350" y="-172" font-family="Arial" font-size="10.00">оформляется</text>
</g>
<!-- Allowance -->
<g id="node3" class="node">
<title>Allowance</title>
<path fill="#f7f7f7" stroke="#444444" d="M95,-144C95,-144 12,-144 12,-144 6,-144 0,-138 0,-132 0,-132 0,-120 0,-120 0,-114 6,-108 12,-108 12,-108 95,-108 95,-108 101,-108 107,-114 107,-120 107,-120 107,-132 107,-132 107,-138 101,-144 95,-144"/>
<text text-anchor="middle" x="53.5" y="-129.4" font-family="Arial" font-size="12.00">Allowance Event</text>
<text text-anchor="middle" x="53.5" y="-116.4" font-family="Arial" font-size="12.00">Доплата</text>
</g>
<!-- Temp&#45;&gt;Allowance -->
<g id="edge2" class="edge">
<title>Temp&#45;&gt;Allowance</title>
<path fill="none" stroke="#555555" d="M152.23,-204.97C136.68,-198.32 119.74,-189.9 105.5,-180 94.14,-172.1 83.17,-161.51 74.25,-151.88"/>
<polygon fill="#555555" stroke="#555555" points="76.86,-149.54 67.58,-144.42 71.64,-154.21 76.86,-149.54"/>
<text text-anchor="middle" x="142.5" y="-172" font-family="Arial" font-size="10.00">может породить</text>
</g>
<!-- Temp&#45;&gt;Order -->
<g id="edge4" class="edge">
<title>Temp&#45;&gt;Order</title>
<path fill="none" stroke="#555555" d="M201.59,-204.82C205.58,-171.94 214.37,-99.64 219.52,-57.25"/>
<polygon fill="#555555" stroke="#555555" points="223.01,-57.51 220.75,-47.16 216.06,-56.67 223.01,-57.51"/>
<text text-anchor="middle" x="244" y="-123.5" font-family="Arial" font-size="10.00">оформляется</text>
</g>
<!-- Allowance&#45;&gt;Order -->
<g id="edge5" class="edge">
<title>Allowance&#45;&gt;Order</title>
<path fill="none" stroke="#555555" d="M71.18,-107.77C83.27,-96.62 100.02,-82.3 116.5,-72 128.68,-64.39 142.3,-57.35 155.62,-51.17"/>
<polygon fill="#555555" stroke="#555555" points="157.11,-54.33 164.78,-47.02 154.22,-47.96 157.11,-54.33"/>
<text text-anchor="middle" x="148" y="-75" font-family="Arial" font-size="10.00">оформляется</text>
</g>
</g>
</svg>
