<?xml version="1.0" encoding="UTF-8" standalone="no"?>
<!DOCTYPE svg PUBLIC "-//W3C//DTD SVG 1.1//EN"
 "http://www.w3.org/Graphics/SVG/1.1/DTD/svg11.dtd">
<!-- Generated by graphviz version 2.42.4 (0)
 -->
<!-- Title: G Pages: 1 -->
<svg width="933pt" height="282pt"
 viewBox="0.00 0.00 932.60 281.60" xmlns="http://www.w3.org/2000/svg" xmlns:xlink="http://www.w3.org/1999/xlink">
<g id="graph0" class="graph" transform="scale(1 1) rotate(0) translate(28.8 252.8)">
<title>G</title>
<polygon fill="white" stroke="transparent" points="-28.8,28.8 -28.8,-252.8 903.8,-252.8 903.8,28.8 -28.8,28.8"/>
<!-- Employee -->
<g id="node1" class="node">
<title>Employee</title>
<path fill="#f7f7f7" stroke="#444444" d="M63,-130C63,-130 12,-130 12,-130 6,-130 0,-124 0,-118 0,-118 0,-106 0,-106 0,-100 6,-94 12,-94 12,-94 63,-94 63,-94 69,-94 75,-100 75,-106 75,-106 75,-118 75,-118 75,-124 69,-130 63,-130"/>
<text text-anchor="middle" x="37.5" y="-115.4" font-family="Arial" font-size="12.00">Employee</text>
<text text-anchor="middle" x="37.5" y="-102.4" font-family="Arial" font-size="12.00">Сотрудник</text>
</g>
<!-- Event -->
<g id="node2" class="node">
<title>Event</title>
<path fill="#f7f7f7" stroke="#444444" d="M289,-130C289,-130 193,-130 193,-130 187,-130 181,-124 181,-118 181,-118 181,-106 181,-106 181,-100 187,-94 193,-94 193,-94 289,-94 289,-94 295,-94 301,-100 301,-106 301,-106 301,-118 301,-118 301,-124 295,-130 289,-130"/>
<text text-anchor="middle" x="241" y="-115.4" font-family="Arial" font-size="12.00">Personnel Event</text>
<text text-anchor="middle" x="241" y="-102.4" font-family="Arial" font-size="12.00">Кадровое событие</text>
</g>
<!-- Employee&#45;&gt;Event -->
<g id="edge1" class="edge">
<title>Employee&#45;&gt;Event</title>
<path fill="none" stroke="#555555" d="M75.46,-112C102.01,-112 138.61,-112 170.54,-112"/>
<polygon fill="#555555" stroke="#555555" points="170.73,-115.5 180.73,-112 170.73,-108.5 170.73,-115.5"/>
<text text-anchor="middle" x="128" y="-115" font-family="Arial" font-size="10.00">имеет события</text>
</g>
<!-- ChangeSet -->
<g id="node3" class="node">
<title>ChangeSet</title>
<path fill="#f7f7f7" stroke="#444444" d="M490,-130C490,-130 398,-130 398,-130 392,-130 386,-124 386,-118 386,-118 386,-106 386,-106 386,-100 392,-94 398,-94 398,-94 490,-94 490,-94 496,-94 502,-100 502,-106 502,-106 502,-118 502,-118 502,-124 496,-130 490,-130"/>
<text text-anchor="middle" x="444" y="-115.4" font-family="Arial" font-size="12.00">Change Set</text>
<text text-anchor="middle" x="444" y="-102.4" font-family="Arial" font-size="12.00">Набор изменений</text>
</g>
<!-- Event&#45;&gt;ChangeSet -->
<g id="edge2" class="edge">
<title>Event&#45;&gt;ChangeSet</title>
<path fill="none" stroke="#555555" d="M301.22,-112C324.63,-112 351.65,-112 375.78,-112"/>
<polygon fill="#555555" stroke="#555555" points="375.93,-115.5 385.93,-112 375.93,-108.5 375.93,-115.5"/>
<text text-anchor="middle" x="343.5" y="-115" font-family="Arial" font-size="10.00">порождает</text>
</g>
<!-- State -->
<g id="node4" class="node">
<title>State</title>
<path fill="#f7f7f7" stroke="#444444" d="M694,-130C694,-130 593,-130 593,-130 587,-130 581,-124 581,-118 581,-118 581,-106 581,-106 581,-100 587,-94 593,-94 593,-94 694,-94 694,-94 700,-94 706,-100 706,-106 706,-106 706,-118 706,-118 706,-124 700,-130 694,-130"/>
<text text-anchor="middle" x="643.5" y="-115.4" font-family="Arial" font-size="12.00">Personnel State</text>
<text text-anchor="middle" x="643.5" y="-102.4" font-family="Arial" font-size="12.00">Текущее состояние</text>
</g>
<!-- ChangeSet&#45;&gt;State -->
<g id="edge3" class="edge">
<title>ChangeSet&#45;&gt;State</title>
<path fill="none" stroke="#555555" d="M502.13,-112C523.46,-112 547.98,-112 570.49,-112"/>
<polygon fill="#555555" stroke="#555555" points="570.67,-115.5 580.67,-112 570.67,-108.5 570.67,-115.5"/>
<text text-anchor="middle" x="541.5" y="-115" font-family="Arial" font-size="10.00">изменяет</text>
</g>
<!-- Card -->
<g id="node5" class="node">
<title>Card</title>
<path fill="#f7f7f7" stroke="#444444" d="M863,-224C863,-224 755,-224 755,-224 749,-224 743,-218 743,-212 743,-212 743,-200 743,-200 743,-194 749,-188 755,-188 755,-188 863,-188 863,-188 869,-188 875,-194 875,-200 875,-200 875,-212 875,-212 875,-218 869,-224 863,-224"/>
<text text-anchor="middle" x="809" y="-209.4" font-family="Arial" font-size="12.00">Employee Card</text>
<text text-anchor="middle" x="809" y="-196.4" font-family="Arial" font-size="12.00">Карточка сотрудника</text>
</g>
<!-- State&#45;&gt;Card -->
<g id="edge4" class="edge">
<title>State&#45;&gt;Card</title>
<path fill="none" stroke="#555555" d="M676.02,-130.12C702.15,-145.14 739.45,-166.59 767.73,-182.85"/>
<polygon fill="#555555" stroke="#555555" points="766.16,-185.98 776.57,-187.93 769.65,-179.91 766.16,-185.98"/>
</g>
<!-- Cabinet -->
<g id="node6" class="node">
<title>Cabinet</title>
<path fill="#f7f7f7" stroke="#444444" d="M859.5,-130C859.5,-130 758.5,-130 758.5,-130 752.5,-130 746.5,-124 746.5,-118 746.5,-118 746.5,-106 746.5,-106 746.5,-100 752.5,-94 758.5,-94 758.5,-94 859.5,-94 859.5,-94 865.5,-94 871.5,-100 871.5,-106 871.5,-106 871.5,-118 871.5,-118 871.5,-124 865.5,-130 859.5,-130"/>
<text text-anchor="middle" x="809" y="-115.4" font-family="Arial" font-size="12.00">Position Cabinet</text>
<text text-anchor="middle" x="809" y="-102.4" font-family="Arial" font-size="12.00">Кабинет должности</text>
</g>
<!-- State&#45;&gt;Cabinet -->
<g id="edge5" class="edge">
<title>State&#45;&gt;Cabinet</title>
<path fill="none" stroke="#555555" d="M706.31,-112C716.04,-112 726.18,-112 736.11,-112"/>
<polygon fill="#555555" stroke="#555555" points="736.37,-115.5 746.37,-112 736.37,-108.5 736.37,-115.5"/>
</g>
<!-- Reports -->
<g id="node7" class="node">
<title>Reports</title>
<path fill="#f7f7f7" stroke="#444444" d="M826.5,-36C826.5,-36 791.5,-36 791.5,-36 785.5,-36 779.5,-30 779.5,-24 779.5,-24 779.5,-12 779.5,-12 779.5,-6 785.5,0 791.5,0 791.5,0 826.5,0 826.5,0 832.5,0 838.5,-6 838.5,-12 838.5,-12 838.5,-24 838.5,-24 838.5,-30 832.5,-36 826.5,-36"/>
<text text-anchor="middle" x="809" y="-21.4" font-family="Arial" font-size="12.00">Reports</text>
<text text-anchor="middle" x="809" y="-8.4" font-family="Arial" font-size="12.00">Отчеты</text>
</g>
<!-- State&#45;&gt;Reports -->
<g id="edge6" class="edge">
<title>State&#45;&gt;Reports</title>
<path fill="none" stroke="#555555" d="M676.02,-93.88C702.99,-78.37 741.85,-56.03 770.42,-39.6"/>
<polygon fill="#555555" stroke="#555555" points="772.39,-42.51 779.31,-34.49 768.9,-36.44 772.39,-42.51"/>
</g>
</g>
</svg>
